grf
version=1
nRows=14
nColumns=37
inDegrees=no
endheader
time	ground_force_1_vx	ground_force_1_vy	ground_force_1_vz	ground_force_1_px	ground_force_1_py	ground_force_1_pz	ground_moment_1_mx	ground_moment_1_my	ground_moment_1_mz	ground_force_2_vx	ground_force_2_vy	ground_force_2_vz	ground_force_2_px	ground_force_2_py	ground_force_2_pz	ground_moment_2_mx	ground_moment_2_my	ground_moment_2_mz	ground_force_3_vx	ground_force_3_vy	ground_force_3_vz	ground_force_3_px	ground_force_3_py	ground_force_3_pz	ground_moment_3_mx	ground_moment_3_my	ground_moment_3_mz	ground_force_4_vx	ground_force_4_vy	ground_force_4_vz	ground_force_4_px	ground_force_4_py	ground_force_4_pz	ground_moment_4_mx	ground_moment_4_my	ground_moment_4_mz
      0.00000000	      0.00000000	     -0.00000000	      0.00000000	      0.00000000	      0.00000000	      0.00000000	      0.00000000	      0.00000000	      0.00000000	    -15.67546654	     24.52375031	   -403.68554688	   -232.71560863	  -1015.08623668	      0.00000000	      0.00000000	      0.00000000	   2929.25228161	      3.82728558	    -26.62283359	   -374.34133911	   -279.95579603	   -759.25996577	      0.00000000	      0.00000000	     -0.00000000	  -2730.51565145	      0.00000000	     -0.00000000	      0.00000000	      0.00000000	      0.00000000	      0.00000000	      0.00000000	      0.00000000	      0.00000000
      0.01000000	      0.00000000	     -0.00000000	      0.00000000	      0.00000000	      0.00000000	      0.00000000	      0.00000000	      0.00000000	      0.00000000	    -15.81532097	     24.39669228	   -403.98529053	   -232.53702197	  -1015.99685280	      0.00000000	      0.00000000	      0.00000000	   2929.84457698	      4.16905938	    -26.10566176	   -373.19357300	   -280.91280794	   -760.61257802	      0.00000000	     -0.00000000	     -0.00000000	  -2826.02396055	      0.00000000	     -0.00000000	      0.00000000	      0.00000000	      0.00000000	      0.00000000	      0.00000000	      0.00000000	      0.00000000
      0.02000000	      0.00000000	     -0.00000000	      0.00000000	      0.00000000	      0.00000000	      0.00000000	      0.00000000	      0.00000000	      0.00000000	    -15.49782944	     24.85378838	   -400.90832520	   -230.57099525	  -1015.47468867	      0.00000000	      0.00000000	      0.00000000	   2961.57954469	      4.70086922	    -25.68922084	   -373.34420776	   -281.17349206	   -760.62749807	      0.00000000	     -0.00000000	     -0.00000000	  -2963.09215536	      0.00000000	     -0.00000000	      0.00000000	      0.00000000	      0.00000000	      0.00000000	      0.00000000	      0.00000000	      0.00000000
      0.03000000	      0.00000000	     -0.00000000	      0.00000000	      0.00000000	      0.00000000	      0.00000000	      0.00000000	      0.00000000	      0.00000000	    -15.81645107	     25.03337860	   -398.99612427	   -230.41573131	  -1014.49383344	      0.00000000	      0.00000000	      0.00000000	   2877.01565855	      5.06883399	    -25.42315337	   -373.88806152	   -282.45874613	   -761.42461573	      0.00000000	      0.00000000	     -0.00000000	  -2898.40854644	      0.00000000	     -0.00000000	      0.00000000	      0.00000000	      0.00000000	      0.00000000	      0.00000000	      0.00000000	      0.00000000
      0.04000000	      0.00000000	     -0.00000000	      0.00000000	      0.00000000	      0.00000000	      0.00000000	      0.00000000	      0.00000000	      0.00000000	    -16.05789185	     24.85526848	   -396.82165527	   -229.52840672	  -1014.03254221	      0.00000000	      0.00000000	     -0.00000000	   2640.30837823	      5.07043952	    -25.19591757	   -374.04409790	   -283.06607754	   -761.74259338	      0.00000000	      0.00000000	     -0.00000000	  -2780.18203228	      0.00000000	     -0.00000000	      0.00000000	      0.00000000	      0.00000000	      0.00000000	      0.00000000	      0.00000000	      0.00000000
      0.05000000	      0.00000000	     -0.00000000	      0.00000000	      0.00000000	      0.00000000	      0.00000000	      0.00000000	      0.00000000	      0.00000000	    -15.85548115	     25.20929909	   -394.60736084	   -228.24903488	  -1013.87731312	      0.00000000	      0.00000000	      0.00000000	   2920.85765564	      5.51431771	    -25.02121592	   -375.82934570	   -284.51496251	   -760.15980548	      0.00000000	      0.00000000	     -0.00000000	  -2707.42896218	      0.00000000	     -0.00000000	      0.00000000	      0.00000000	      0.00000000	      0.00000000	      0.00000000	      0.00000000	      0.00000000
      0.06000000	      0.00000000	     -0.00000000	      0.00000000	      0.00000000	      0.00000000	      0.00000000	      0.00000000	      0.00000000	      0.00000000	    -16.18577957	     24.66232300	   -394.60818481	   -228.25818790	  -1014.84210628	      0.00000000	      0.00000000	      0.00000000	   2684.82964162	      6.21244737	    -24.91856629	   -373.98822021	   -285.42969580	   -761.67298223	      0.00000000	      0.00000000	     -0.00000000	  -2791.31762719	      0.00000000	     -0.00000000	      0.00000000	      0.00000000	      0.00000000	      0.00000000	      0.00000000	      0.00000000	      0.00000000
      0.07000000	      0.00000000	     -0.00000000	      0.00000000	      0.00000000	      0.00000000	      0.00000000	      0.00000000	      0.00000000	      0.00000000	    -16.19756508	     24.08051682	   -392.67544556	   -228.14566352	  -1014.81464421	      0.00000000	      0.00000000	      0.00000000	   2832.08700531	      6.66506833	    -25.17168103	   -374.74484253	   -286.03356981	   -762.23347193	      0.00000000	      0.00000000	     -0.00000000	  -2713.99865633	      0.00000000	     -0.00000000	      0.00000000	      0.00000000	      0.00000000	      0.00000000	      0.00000000	      0.00000000	      0.00000000
      0.08000000	      0.00000000	     -0.00000000	      0.00000000	      0.00000000	      0.00000000	      0.00000000	      0.00000000	      0.00000000	      0.00000000	    -16.08105850	     23.68899155	   -392.29122925	   -227.04725336	  -1014.81270268	      0.00000000	      0.00000000	      0.00000000	   2776.35958527	      6.89253205	    -25.19846976	   -375.88461304	   -286.68102323	   -762.24673358	      0.00000000	      0.00000000	     -0.00000000	  -2817.63103323	      0.00000000	     -0.00000000	      0.00000000	      0.00000000	      0.00000000	      0.00000000	      0.00000000	      0.00000000	      0.00000000
      0.09000000	      0.00000000	     -0.00000000	      0.00000000	      0.00000000	      0.00000000	      0.00000000	      0.00000000	      0.00000000	      0.00000000	    -16.11964607	     23.59671211	   -390.72570801	   -227.13823967	  -1014.74117173	      0.00000000	      0.00000000	      0.00000000	   2862.46934211	      6.76498190	    -25.53640043	   -378.32836914	   -286.85795048	   -762.82487259	      0.00000000	      0.00000000	     -0.00000000	  -2959.81777978	      0.00000000	     -0.00000000	      0.00000000	      0.00000000	      0.00000000	      0.00000000	      0.00000000	      0.00000000	      0.00000000
      0.10000000	      0.00000000	     -0.00000000	      0.00000000	      0.00000000	      0.00000000	      0.00000000	      0.00000000	      0.00000000	      0.00000000	    -16.23631287	     23.62457657	   -387.74682617	   -226.25207608	  -1014.44814385	      0.00000000	      0.00000000	     -0.00000000	   2650.92705027	      6.19839348	    -25.72423035	   -380.48583984	   -287.04523827	   -761.83837595	      0.00000000	      0.00000000	     -0.00000000	  -2793.66887478	      0.00000000	     -0.00000000	      0.00000000	      0.00000000	      0.00000000	      0.00000000	      0.00000000	      0.00000000	      0.00000000
      0.11000000	      0.00000000	     -0.00000000	      0.00000000	      0.00000000	      0.00000000	      0.00000000	      0.00000000	      0.00000000	      0.00000000	    -16.18611908	     23.62524605	   -385.95971680	   -226.16431620	  -1014.47493913	      0.00000000	      0.00000000	      0.00000000	   2726.53221961	      6.34843364	    -25.55850847	   -382.42932129	   -288.22741056	   -762.76986602	      0.00000000	      0.00000000	     -0.00000000	  -2806.40935276	      0.00000000	     -0.00000000	      0.00000000	      0.00000000	      0.00000000	      0.00000000	      0.00000000	      0.00000000	      0.00000000
      0.12000000	      0.00000000	     -0.00000000	      0.00000000	      0.00000000	      0.00000000	      0.00000000	      0.00000000	      0.00000000	      0.00000000	    -15.79026031	     23.49136925	   -384.65661621	   -226.48748265	  -1015.32709267	      0.00000000	     -0.00000000	      0.00000000	   2901.49334827	      6.69212260	    -25.62987386	   -385.65979004	   -288.44467672	   -762.42394220	      0.00000000	      0.00000000	     -0.00000000	  -2966.24565493	      0.00000000	     -0.00000000	      0.00000000	      0.00000000	      0.00000000	      0.00000000	      0.00000000	      0.00000000	      0.00000000
      0.13000000	      0.00000000	     -0.00000000	      0.00000000	      0.00000000	      0.00000000	      0.00000000	      0.00000000	      0.00000000	      0.00000000	    -16.24720955	     23.68045235	   -380.17663574	   -225.99147896	  -1013.52888592	      0.00000000	      0.00000000	      0.00000000	   2554.53747754	      6.79184733	    -26.12141669	   -387.55828857	   -288.65454526	   -763.47915727	      0.00000000	      0.00000000	     -0.00000000	  -2848.80346807	      0.00000000	     -0.00000000	      0.00000000	      0.00000000	      0.00000000	      0.00000000	      0.00000000	      0.00000000	      0.00000000
